HIERARCHY
ROOT hip
{
  OFFSET 0 0 0
  CHANNELS 6 Xposition Yposition Zposition Zrotation Yrotation Xrotation
  JOINT abdomen
  {
    OFFSET 0 20.6881 -0.73152
    CHANNELS 3 Zrotation Xrotation Yrotation
    JOINT chest
    {
      OFFSET 0 11.7043 -0.48768
      CHANNELS 3 Zrotation Xrotation Yrotation
      JOINT neck
      {
        OFFSET 0 22.1894 -2.19456
        CHANNELS 3 Zrotation Xrotation Yrotation
        JOINT head
        {
          OFFSET -0.24384 7.07133 1.2192
          CHANNELS 3 Zrotation Xrotation Yrotation
          JOINT leftEye
          {
            OFFSET 4.14528 8.04674 8.04672
            CHANNELS 3 Zrotation Xrotation Yrotation
            End Site
            {
              OFFSET 1 0 0
            }
          }
          JOINT rightEye
          {
            OFFSET -3.6576 8.04674 8.04672
            CHANNELS 3 Zrotation Xrotation Yrotation
            End Site
            {
              OFFSET 1 0 0
            }
          }
        }
      }
      JOINT rCollar
      {
        OFFSET -2.68224 19.2634 -4.8768
        CHANNELS 3 Zrotation Xrotation Yrotation
        JOINT rShldr
        {
          OFFSET -8.77824 -1.95073 1.46304
          CHANNELS 3 Zrotation Xrotation Yrotation
          JOINT rForeArm
          {
            OFFSET -28.1742 -1.7115 0.48768
            CHANNELS 3 Zrotation Xrotation Yrotation
            JOINT rHand
            {
              OFFSET -22.5879 0.773209 7.07136
              CHANNELS 3 Zrotation Xrotation Yrotation
              JOINT rThumb1
              {
                OFFSET -1.2192 -0.487915 3.41376
                CHANNELS 3 Zrotation Xrotation Yrotation
                JOINT rThumb2
                {
                  OFFSET -3.37035 -0.52449 3.41376
                  CHANNELS 3 Zrotation Xrotation Yrotation
                  End Site
                  {
                    OFFSET -1.78271 -1.18214 1.43049
                  }
                }
              }
              JOINT rIndex1
              {
                OFFSET -7.75947 0.938293 5.60832
                CHANNELS 3 Zrotation Xrotation Yrotation
                JOINT rIndex2
                {
                  OFFSET -2.54057 -0.884171 1.56538
                  CHANNELS 3 Zrotation Xrotation Yrotation
                  End Site
                  {
                    OFFSET -1.62519 -0.234802 1.16502
                  }
                }
              }
              JOINT rMid1
              {
                OFFSET -8.24714 1.18213 3.41376
                CHANNELS 3 Zrotation Xrotation Yrotation
                JOINT rMid2
                {
                  OFFSET -3.10165 -0.590103 1.0647
                  CHANNELS 3 Zrotation Xrotation Yrotation
                  End Site
                  {
                    OFFSET -2.48547 -0.328903 0.83742
                  }
                }
              }
              JOINT rRing1
              {
                OFFSET -8.82822 0.546677 1.51678
                CHANNELS 3 Zrotation Xrotation Yrotation
                JOINT rRing2
                {
                  OFFSET -2.60934 -0.819778 -0.0198488
                  CHANNELS 3 Zrotation Xrotation Yrotation
                  End Site
                  {
                    OFFSET -2.33842 -0.294052 0.168128
                  }
                }
              }
              JOINT rPinky1
              {
                OFFSET -8.27202 -0.0477905 -0.4584
                CHANNELS 3 Zrotation Xrotation Yrotation
                JOINT rPinky2
                {
                  OFFSET -1.82734 -0.647385 -0.700984
                  CHANNELS 3 Zrotation Xrotation Yrotation
                  End Site
                  {
                    OFFSET -1.69225 -0.51767 -0.607171
                  }
                }
              }
            }
          }
        }
      }
      JOINT lCollar
      {
        OFFSET 2.68224 19.2634 -4.8768
        CHANNELS 3 Zrotation Xrotation Yrotation
        JOINT lShldr
        {
          OFFSET 8.77824 -1.95073 1.46304
          CHANNELS 3 Zrotation Xrotation Yrotation
          JOINT lForeArm
          {
            OFFSET 28.1742 -1.7115 0.48768
            CHANNELS 3 Zrotation Xrotation Yrotation
            JOINT lHand
            {
              OFFSET 22.5879 0.773209 7.07136
              CHANNELS 3 Zrotation Xrotation Yrotation
              JOINT lThumb1
              {
                OFFSET 1.2192 -0.487915 3.41376
                CHANNELS 3 Zrotation Xrotation Yrotation
                JOINT lThumb2
                {
                  OFFSET 3.37035 -0.52449 3.41376
                  CHANNELS 3 Zrotation Xrotation Yrotation
                  End Site
                  {
                    OFFSET 1.78271 -1.18214 1.43049
                  }
                }
              }
              JOINT lIndex1
              {
                OFFSET 7.75947 0.938293 5.60832
                CHANNELS 3 Zrotation Xrotation Yrotation
                JOINT lIndex2
                {
                  OFFSET 2.54057 -0.884171 1.56538
                  CHANNELS 3 Zrotation Xrotation Yrotation
                  End Site
                  {
                    OFFSET 1.62519 -0.234802 1.16502
                  }
                }
              }
              JOINT lMid1
              {
                OFFSET 8.24714 1.18213 3.41376
                CHANNELS 3 Zrotation Xrotation Yrotation
                JOINT lMid2
                {
                  OFFSET 3.10165 -0.590103 1.0647
                  CHANNELS 3 Zrotation Xrotation Yrotation
                  End Site
                  {
                    OFFSET 2.48547 -0.328903 0.83742
                  }
                }
              }
              JOINT lRing1
              {
                OFFSET 8.82822 0.546677 1.51678
                CHANNELS 3 Zrotation Xrotation Yrotation
                JOINT lRing2
                {
                  OFFSET 2.60934 -0.819778 -0.0198488
                  CHANNELS 3 Zrotation Xrotation Yrotation
                  End Site
                  {
                    OFFSET 2.33842 -0.294052 0.168128
                  }
                }
              }
              JOINT lPinky1
              {
                OFFSET 8.27202 -0.0477905 -0.4584
                CHANNELS 3 Zrotation Xrotation Yrotation
                JOINT lPinky2
                {
                  OFFSET 1.82734 -0.647385 -0.700984
                  CHANNELS 3 Zrotation Xrotation Yrotation
                  End Site
                  {
                    OFFSET 1.69225 -0.51767 -0.607171
                  }
                }
              }
            }
          }
        }
      }
    }
  }
  JOINT rButtock
  {
    OFFSET -8.77824 4.35084 1.2192
    CHANNELS 3 Zrotation Xrotation Yrotation
    JOINT rThigh
    {
      OFFSET 0 -1.70687 -2.19456
      CHANNELS 3 Zrotation Xrotation Yrotation
      JOINT rShin
      {
        OFFSET 0 -36.8199 0.73152
        CHANNELS 3 Zrotation Xrotation Yrotation
        JOINT rFoot
        {
          OFFSET 0.73152 -45.1104 -5.12064
          CHANNELS 3 Zrotation Xrotation Yrotation
          End Site
          {
            OFFSET -1.1221 -3.69964 12.103
          }
        }
      }
    }
  }
  JOINT lButtock
  {
    OFFSET 8.77824 4.35084 1.2192
    CHANNELS 3 Zrotation Xrotation Yrotation
    JOINT lThigh
    {
      OFFSET 0 -1.70687 -2.19456
      CHANNELS 3 Zrotation Xrotation Yrotation
      JOINT lShin
      {
        OFFSET 0 -36.8199 0.73152
        CHANNELS 3 Zrotation Xrotation Yrotation
        JOINT lFoot
        {
          OFFSET -0.73152 -45.1104 -5.12064
          CHANNELS 3 Zrotation Xrotation Yrotation
          End Site
          {
            OFFSET 1.1221 -3.69964 12.103
          }
        }
      }
    }
  }
}
MOTION
Frames:	13
Frame Time:	0.00833333
0.002301 57.4737 0.039697 9.1855 22.1559 6.3344 -15.490799 15.9796 -3.32262 5.45834 -11.5784 -0.926967 -7.20636 14.664101 -9.22593 9.82608 -25.3644 -15.836599 -0.0 0.0 0.0 -0.0 0.0 0.0 0.0 -0.0 0.0 59.1375 35.8665 4.60249 -18.571 -11.314 35.3138 -0.170285 11.68 1.66486 -0.0 0.0 -0.0 -0.0 0.0 -0.0 -0.0 0.0 -0.0 7.73091 5.47488 0.417314 -0.0 0.0 -0.0 2.90554 0.965183 0.102902 -0.0 0.0 -0.0 10.2786 0.731801 0.025912 -0.0 0.0 -0.0 2.22167 -0.733487 -0.20892 0.0 -0.0 0.0 -59.7354 46.1057 -22.5712 16.1993 -8.87361 -30.0944 0.014708 3.46885 -0.488112 -0.0 -0.0 -0.0 -0.0 -0.0 -0.0 -0.0 -0.0 -0.0 -7.73091 5.47488 -0.417314 -0.0 -0.0 -0.0 -2.90554 0.965183 -0.102902 -0.0 -0.0 -0.0 -10.2786 0.731801 -0.025912 -0.0 -0.0 -0.0 -2.22167 -0.733487 0.20892 -0.0 0.0 -0.0 -64.0545 -56.0802 -55.2529 -2.89349 74.6048 3.48973 0.097134 -9.4333 1.82365 0.0 0.0 0.0 11.6965 11.7464 6.4341 -0.136117 34.5002 -2.69629 12.0434 -20.0207 33.412
-0.030699 57.4471 0.095004 9.0842 22.0439 6.567 -15.436701 16.0201 -3.33012 5.38815 -11.6677 -0.93143 -7.19998 14.595401 -9.23378 9.81691 -25.4542 -15.847 -0.0 0.0 0.0 -0.0 0.0 0.0 0.0 -0.0 0.0 58.8961 35.7657 4.85527 -18.5382 -11.2774 35.2388 -0.168013 11.6033 1.65363 -0.0 0.0 -0.0 -0.0 0.0 -0.0 -0.0 0.0 -0.0 7.73091 5.47488 0.417314 -0.0 0.0 -0.0 2.90554 0.965183 0.102902 -0.0 0.0 -0.0 10.2786 0.731801 0.025912 -0.0 0.0 -0.0 2.22167 -0.733487 -0.20892 0.0 -0.0 0.0 -59.1164 46.2791 -23.1674 16.2107 -8.88434 -30.1186 0.016353 3.66069 -0.515177 -0.0 -0.0 -0.0 -0.0 -0.0 -0.0 -0.0 -0.0 -0.0 -7.73091 5.47488 -0.417314 -0.0 -0.0 -0.0 -2.90554 0.965183 -0.102902 -0.0 -0.0 -0.0 -10.2786 0.731801 -0.025912 -0.0 -0.0 -0.0 -2.22167 -0.733487 0.20892 -0.0 0.0 -0.0 -64.3954 -56.2628 -55.5422 -2.92536 74.7805 3.55136 -0.202596 -9.38851 0.787379 0.0 0.0 0.0 11.5729 11.7192 6.46584 -0.139971 34.262 -2.6907 11.9844 -19.9208 33.4467
-0.0441 57.4257 0.169998 9.1314 21.916 6.8396 -15.3726 16.0562 -3.34289 5.31354 -11.7585 -0.93738 -7.19321 14.5252 -9.24071 9.80126 -25.5566 -15.8565 -0.0 0.0 0.0 -0.0 0.0 0.0 0.0 -0.0 0.0 58.6391 35.6604 5.1223 -18.5064 -11.2417 35.1661 -0.165668 11.5232 1.6419 -0.0 0.0 0.0 -0.0 0.0 0.0 -0.0 0.0 0.0 7.73091 5.47488 0.417314 -0.0 0.0 0.0 2.90554 0.965183 0.102902 -0.0 0.0 0.0 10.2786 0.731801 0.025912 -0.0 0.0 0.0 2.22167 -0.733487 -0.20892 0.0 -0.0 0.0 -58.463703 46.4394 -23.7974 16.2225 -8.89554 -30.1438 0.018114 3.84735 -0.541527 -0.0 -0.0 -0.0 -0.0 -0.0 -0.0 -0.0 -0.0 -0.0 -7.73091 5.47488 -0.417314 -0.0 -0.0 -0.0 -2.90554 0.965183 -0.102902 -0.0 -0.0 -0.0 -10.2786 0.731801 -0.025912 -0.0 -0.0 -0.0 -2.22167 -0.733487 0.20892 -0.0 0.0 -0.0 -64.7521 -56.4517 -55.8588 -2.96183 74.9723 3.61881 -0.509097 -9.30676 -0.275216 0.0 0.0 0.0 11.4476 11.6995 6.4917 -0.14427 33.9899 -2.6835 11.9187 -19.8138 33.4798
-0.0394 57.4129 0.273103 9.2686 21.8666 7.0952 -15.268001 16.1071 -3.35766 5.2352 -11.8506 -0.943144 -7.18755 14.459799 -9.245 9.77548 -25.6883 -15.861099 -0.0 0.0 0.0 -0.0 0.0 0.0 -0.0 -0.0 0.0 58.362705 35.5481 5.39091 -18.4836 -11.2162 35.1143 -0.16368 11.4547 1.63187 0.0 0.0 0.0 0.0 0.0 0.0 0.0 0.0 0.0 7.73091 5.47488 0.417314 0.0 0.0 0.0 2.90554 0.965183 0.102902 0.0 0.0 0.0 10.2786 0.731801 0.025912 0.0 0.0 0.0 2.22167 -0.733487 -0.20892 -0.0 -0.0 0.0 -57.8019 46.5772 -24.4499 16.2395 -8.91163 -30.1798 0.019504 3.98378 -0.560797 0.0 0.0 0.0 0.0 0.0 0.0 0.0 0.0 0.0 -7.73091 5.47488 -0.417314 0.0 0.0 0.0 -2.90554 0.965183 -0.102902 0.0 0.0 0.0 -10.2786 0.731801 -0.025912 0.0 0.0 0.0 -2.22167 -0.733487 0.20892 -0.0 0.0 -0.0 -65.0695 -56.6309 -56.1788 -3.00004 75.1662 3.68735 -0.807803 -9.20924 -1.31639 0.0 0.0 0.0 11.3443 11.7148 6.50752 -0.14925 33.6709 -2.67424 11.8415 -19.6882 33.5155
-0.0567 57.3977 0.372905 9.2983 21.7578 7.3587 -15.1162 16.1876 -3.372 5.15298 -11.9399 -0.948371 -7.18345 14.401199 -9.24678 9.73561 -25.8678 -15.860799 -0.0 0.0 0.0 -0.0 0.0 0.0 -0.0 -0.0 -0.0 58.0646 35.4186 5.66387 -18.4731 -11.2045 35.0904 -0.161956 11.3951 1.62315 0.0 -0.0 0.0 0.0 -0.0 0.0 0.0 -0.0 0.0 7.73091 5.47488 0.417314 0.0 -0.0 0.0 2.90554 0.965183 0.102902 0.0 -0.0 0.0 10.2786 0.731801 0.025912 0.0 -0.0 0.0 2.22167 -0.733487 -0.20892 -0.0 -0.0 -0.0 -57.1288 46.6871 -25.1341 16.2629 -8.93384 -30.2297 0.02036 4.06506 -0.572281 0.0 0.0 0.0 0.0 0.0 0.0 0.0 0.0 0.0 -7.73091 5.47488 -0.417314 0.0 0.0 0.0 -2.90554 0.965183 -0.102902 0.0 0.0 0.0 -10.2786 0.731801 -0.025912 0.0 0.0 0.0 -2.22167 -0.733487 0.20892 -0.0 0.0 -0.0 -65.3247 -56.7954 -56.4782 -3.03822 75.3556 3.75523 -1.09774 -9.10462 -2.33454 0.0 0.0 0.0 11.271 11.7741 6.5147 -0.15458 33.3096 -2.6634 11.7513 -19.5397 33.5547
-0.1017 57.3776 0.483799 9.1743 21.6418 7.6148 -14.933 16.2842 -3.38817 5.06663 -12.0277 -0.953924 -7.18008 14.3458 -9.24678 9.68464 -26.0814 -15.857399 -0.0 0.0 0.0 -0.0 0.0 0.0 -0.0 0.0 -0.0 57.7475 35.2761 5.94566 -18.4702 -11.2013 35.0839 -0.160329 11.3388 1.61491 0.0 -0.0 0.0 0.0 -0.0 0.0 0.0 -0.0 0.0 7.73091 5.47488 0.417314 0.0 -0.0 0.0 2.90554 0.965183 0.102902 0.0 -0.0 0.0 10.2786 0.731801 0.025912 0.0 -0.0 0.0 2.22167 -0.733487 -0.20892 -0.0 0.0 -0.0 -56.4353 46.7739 -25.8508 16.2903 -8.95977 -30.2879 0.020855 4.11285 -0.579033 0.0 0.0 0.0 0.0 0.0 0.0 0.0 0.0 0.0 -7.73091 5.47488 -0.417314 0.0 0.0 0.0 -2.90554 0.965183 -0.102902 0.0 0.0 0.0 -10.2786 0.731801 -0.025912 0.0 0.0 0.0 -2.22167 -0.733487 0.20892 -0.0 0.0 -0.0 -65.5494 -56.9539 -56.7754 -3.07851 75.5488 3.8254 -1.38395 -8.98081 -3.35114 0.0 0.0 0.0 11.2145 11.862 6.51464 -0.160165 32.9104 -2.65115 11.6507 -19.3748 33.5955
-0.1434 57.3687 0.627398 9.0444 21.5567 7.8141 -14.721499 16.3738 -3.41 4.97665 -12.1228 -0.959942 -7.17702 14.2922 -9.24416 9.62936 -26.2981 -15.8497 -0.0 0.0 0.0 -0.0 0.0 0.0 -0.0 0.0 -0.0 57.415302 35.1408 6.22637 -18.4714 -11.2027 35.0867 -0.159091 11.2957 1.60861 0.0 -0.0 0.0 0.0 -0.0 0.0 0.0 -0.0 0.0 7.73091 5.47488 0.417314 0.0 -0.0 0.0 2.90554 0.965183 0.102902 0.0 -0.0 0.0 10.2786 0.731801 0.025912 0.0 -0.0 0.0 2.22167 -0.733487 -0.20892 -0.0 0.0 -0.0 -55.7357 46.845 -26.5762 16.3204 -8.9884 -30.3521 0.020928 4.122 -0.580324 0.0 0.0 0.0 0.0 0.0 0.0 0.0 0.0 0.0 -7.73091 5.47488 -0.417314 0.0 0.0 0.0 -2.90554 0.965183 -0.102902 0.0 0.0 0.0 -10.2786 0.731801 -0.025912 0.0 0.0 0.0 -2.22167 -0.733487 0.20892 -0.0 0.0 -0.0 -65.7709 -57.1111 -57.1098 -3.1237 75.7545 3.90004 -1.66186 -8.82844 -4.35323 0.0 0.0 0.0 11.1668 11.9702 6.50317 -0.166528 32.4593 -2.63655 11.541 -19.1986 33.6373
-0.150201 57.3739 0.802702 9.1325 21.5037 8.0548 -14.484801 16.4334 -3.44128 4.88356 -12.2337 -0.966567 -7.17382 14.2386 -9.23807 9.57658 -26.4866 -15.836299 -0.0 0.0 0.0 -0.0 0.0 0.0 -0.0 0.0 -0.0 57.0711 35.033 6.49643 -18.4733 -11.2048 35.0909 -0.158526 11.2759 1.60572 0.0 -0.0 0.0 0.0 -0.0 0.0 0.0 -0.0 0.0 7.73091 5.47488 0.417314 0.0 -0.0 0.0 2.90554 0.965183 0.102902 0.0 -0.0 0.0 10.2786 0.731801 0.025912 0.0 -0.0 0.0 2.22167 -0.733487 -0.20892 -0.0 0.0 -0.0 -55.0443 46.9087 -27.2868 16.3523 -9.01872 -30.4199 0.020534 4.08736 -0.575427 0.0 0.0 0.0 0.0 0.0 0.0 0.0 0.0 0.0 -7.73091 5.47488 -0.417314 0.0 0.0 0.0 -2.90554 0.965183 -0.102902 0.0 0.0 0.0 -10.2786 0.731801 -0.025912 0.0 0.0 0.0 -2.22167 -0.733487 0.20892 -0.0 0.0 -0.0 -66.0172 -57.2709 -57.5219 -3.17691 75.9816 3.98165 -1.92639 -8.63834 -5.32779 0.0 0.0 0.0 11.1199 12.0901 6.4761 -0.174127 31.942698 -2.61877 11.4239 -19.0161 33.6795
-0.214601 57.380005 0.966001 8.8849 21.4131 8.3066 -14.2075 16.4591 -3.48359 4.78644 -12.3677 -0.973075 -7.16857 14.1879 -9.22787 9.52757 -26.6378 -15.8163 -0.0 0.0 0.0 -0.0 0.0 0.0 -0.0 0.0 -0.0 56.7119 34.9621 6.75482 -18.4748 -11.2064 35.0942 -0.158988 11.2921 1.60809 0.0 -0.0 0.0 0.0 -0.0 0.0 0.0 -0.0 0.0 7.73091 5.47488 0.417314 0.0 -0.0 0.0 2.90554 0.965183 0.102902 0.0 -0.0 0.0 10.2786 0.731801 0.025912 0.0 -0.0 0.0 2.22167 -0.733487 -0.20892 -0.0 0.0 -0.0 -54.3662 46.9697 -27.9759 16.3864 -9.0513 -30.4927 0.019596 3.99621 -0.56255 0.0 0.0 0.0 0.0 0.0 0.0 0.0 0.0 0.0 -7.73091 5.47488 -0.417314 0.0 0.0 0.0 -2.90554 0.965183 -0.102902 0.0 0.0 0.0 -10.2786 0.731801 -0.025912 0.0 0.0 0.0 -2.22167 -0.733487 0.20892 -0.0 0.0 -0.0 -66.272 -57.4445 -58.015205 -3.23817 76.22109 4.06758 -2.14627 -8.39514 -6.17685 0.0 0.0 0.0 11.0838 12.221 6.43653 -0.182578 31.3492 -2.59748 11.3017 -18.8311 33.7203
-0.2464 57.3884 1.135701 8.849 21.3349 8.6279 -13.8934 16.4624 -3.53468 4.68535 -12.5185 -0.97965 -7.16209 14.1397 -9.21416 9.47896 -26.7685 -15.7905 -0.0 0.0 0.0 -0.0 0.0 0.0 -0.0 0.0 -0.0 56.3365 34.916 7.00657 -18.4778 -11.2097 35.1011 -0.160231 11.3356 1.61444 0.0 -0.0 0.0 0.0 -0.0 0.0 0.0 -0.0 0.0 7.73091 5.47488 0.417314 0.0 -0.0 0.0 2.90554 0.965183 0.102902 0.0 -0.0 0.0 10.2786 0.731801 0.025912 0.0 -0.0 0.0 2.22167 -0.733487 -0.20892 -0.0 0.0 -0.0 -53.6941 47.0232 -28.6558 16.4231 -9.08637 -30.570997 0.018236 3.85508 -0.54262 0.0 0.0 0.0 0.0 0.0 0.0 0.0 0.0 0.0 -7.73091 5.47488 -0.417314 0.0 0.0 0.0 -2.90554 0.965183 -0.102902 0.0 0.0 0.0 -10.2786 0.731801 -0.025912 0.0 0.0 0.0 -2.22167 -0.733487 0.20892 -0.0 0.0 -0.0 -66.5306 -57.6249 -58.5726 -3.30693 76.4722 4.15844 -2.33224 -8.10932 -6.9387 0.0 0.0 0.0 11.059 12.3671 6.38524 -0.191489 30.688498 -2.57348 11.1731 -18.6402 33.7604
-0.2887 57.406 1.362103 8.758 21.2577 8.9422 -13.5745 16.4436 -3.59266 4.58228 -12.6746 -0.987797 -7.15803 14.0884 -9.19795 9.4305 -26.8868 -15.760001 -0.0 0.0 0.0 -0.0 0.0 0.0 -0.0 0.0 0.0 55.950703 34.8826 7.25129 -18.483 -11.2156 35.1131 -0.16164 11.3844 1.62159 -0.0 0.0 -0.0 -0.0 0.0 -0.0 -0.0 0.0 -0.0 7.73091 5.47488 0.417314 -0.0 0.0 -0.0 2.90554 0.965183 0.102902 -0.0 0.0 -0.0 10.2786 0.731801 0.025912 -0.0 0.0 -0.0 2.22167 -0.733487 -0.20892 -0.0 0.0 0.0 -53.0237 47.0632 -29.330997 16.4608 -9.12244 -30.6514 0.016706 3.68769 -0.518994 -0.0 -0.0 -0.0 -0.0 -0.0 -0.0 -0.0 -0.0 -0.0 -7.73091 5.47488 -0.417314 -0.0 -0.0 -0.0 -2.90554 0.965183 -0.102902 -0.0 -0.0 -0.0 -10.2786 0.731801 -0.025912 -0.0 -0.0 -0.0 -2.22167 -0.733487 0.20892 -0.0 0.0 -0.0 -66.8383 -57.7875 -59.203697 -3.38666 76.7553 4.26286 -2.54072 -7.80959 -7.80449 0.0 0.0 0.0 11.0232 12.5266 6.31465 -0.201297 29.979002 -2.54758 11.0334 -18.4371 33.8041
-0.328399 57.428497 1.571 8.7231 21.1252 9.3118 -13.2831 16.4032 -3.6556 4.47919 -12.8247 -0.999019 -7.16005 14.028 -9.18024 9.38198 -27.0007 -15.725801 -0.0 0.0 0.0 -0.0 0.0 0.0 -0.0 0.0 0.0 55.5606 34.8498 7.48845 -18.4914 -11.225 35.1321 -0.162576 11.4167 1.6263 -0.0 0.0 -0.0 -0.0 0.0 -0.0 -0.0 0.0 -0.0 7.73091 5.47488 0.417314 -0.0 0.0 -0.0 2.90554 0.965183 0.102902 -0.0 0.0 -0.0 10.2786 0.731801 0.025912 -0.0 0.0 -0.0 2.22167 -0.733487 -0.20892 -0.0 0.0 0.0 -52.3512 47.0835 -30.005701 16.4978 -9.15799 -30.730598 0.015201 3.51778 -0.495021 -0.0 -0.0 -0.0 -0.0 -0.0 -0.0 -0.0 -0.0 -0.0 -7.73091 5.47488 -0.417314 -0.0 -0.0 -0.0 -2.90554 0.965183 -0.102902 -0.0 -0.0 -0.0 -10.2786 0.731801 -0.025912 -0.0 -0.0 -0.0 -2.22167 -0.733487 0.20892 -0.0 0.0 -0.0 -67.2383 -57.907497 -59.9157 -3.48237 77.09049 4.39102 -2.82606 -7.52331 -8.96499 0.0 0.0 0.0 10.9543 12.6983 6.21711 -0.212505 29.2389 -2.52049 10.8783 -18.2159 33.8555
-0.3645 57.437405 1.827204 8.7576 21.0653 9.6859 -13.0352 16.3376 -3.72467 4.3791 -12.9685 -1.01383 -7.16926 13.9534 -9.16079 9.333 -27.1063 -15.687399 -0.0 0.0 0.0 -0.0 0.0 0.0 -0.0 0.0 0.0 55.1593 34.819 7.72691 -18.5019 -11.2366 35.156 -0.162774 11.4234 1.62729 -0.0 0.0 -0.0 -0.0 0.0 -0.0 -0.0 0.0 -0.0 7.73091 5.47488 0.417314 -0.0 0.0 -0.0 2.90554 0.965183 0.102902 -0.0 0.0 -0.0 10.2786 0.731801 0.025912 -0.0 0.0 -0.0 2.22167 -0.733487 -0.20892 -0.0 0.0 0.0 -51.6707 47.082 -30.688803 16.5332 -9.19215 -30.8065 0.01363 3.33706 -0.469527 -0.0 -0.0 -0.0 -0.0 -0.0 -0.0 -0.0 -0.0 -0.0 -7.73091 5.47488 -0.417314 -0.0 -0.0 -0.0 -2.90554 0.965183 -0.102902 -0.0 -0.0 -0.0 -10.2786 0.731801 -0.025912 -0.0 -0.0 -0.0 -2.22167 -0.733487 0.20892 -0.0 0.0 -0.0 -67.7697 -57.9819 -60.7297 -3.60704 77.5059 4.55834 -3.2232 -7.22004 -10.5858 0.0 0.0 0.0 10.8377 12.8742 6.09593 -0.226339 28.468 -2.49192 10.7223 -17.9923 33.9248
